<svg width="50" height="50" viewBox="0 0 50 50" fill="none" xmlns="http://www.w3.org/2000/svg">
<path d="M50 5.55556V44.4444C50 45.9179 49.4147 47.3309 48.3728 48.3728C47.3309 49.4147 45.9179 50 44.4444 50H5.55556C4.08213 50 2.66905 49.4147 1.62718 48.3728C0.585316 47.3309 0 45.9179 0 44.4444V5.55556C0 4.08213 0.585316 2.66905 1.62718 1.62718C2.66905 0.585316 4.08213 0 5.55556 0H44.4444C45.9179 0 47.3309 0.585316 48.3728 1.62718C49.4147 2.66905 50 4.08213 50 5.55556ZM11.1111 25L25 38.8889V30.5556H36.1111V19.4444H25V11.1111L11.1111 25Z" fill="#29AED5"/>
</svg>
